# xmcd
#
# Track frame offsets:
#	150
#	13176
#	25461
#	42902
#	61007
#	70381
#	82058
#	96279
#	110675
#	128730
#	142882
#	152324
#	168463
#	181353
#
# Disc length: 2603 seconds
#
# Revision: 1
# Processed by: cddbd v1.5.2PL0 Copyright (c) Steve Scherf et al.
# Submitted via: audiograbber 1.83.01
#
DISCID=b90a290e
DTITLE=Cook, Elizabeth - Welder
DYEAR=2010
DGENRE=Country
TTITLE0=All the Time
TTITLE1=El Camino
TTITLE2=Not California
TTITLE3=Heroin Addict Sister
TTITLE4=Yes to Booty
TTITLE5=Blackland Farmer
TTITLE6=Girlfriend Tonight
TTITLE7=Rock 'n' Roll Man
TTITLE8=Mama's Funeral
TTITLE9=I'm Beginning to Forget
TTITLE10=Snake in the Bed
TTITLE11=Follow You Like Smoke
TTITLE12=I'll Never Know
TTITLE13='Til Then
EXTD=
EXTT0=
EXTT1=
EXTT2=
EXTT3=
EXTT4=
EXTT5=
EXTT6=
EXTT7=
EXTT8=
EXTT9=
EXTT10=
EXTT11=
EXTT12=
EXTT13=
PLAYORDER=
